<svg width="80" height="80" viewBox="0 0 80 80" fill="none" xmlns="http://www.w3.org/2000/svg">
<rect width="80" height="80" rx="40" fill="black"/>
<path d="M30.6554 35.8891C35.1595 35.8891 38.8108 32.2357 38.8108 27.729C38.8108 23.2223 35.1595 19.5688 30.6554 19.5688C26.1513 19.5688 22.5 23.2223 22.5 27.729C22.5 32.2357 26.1513 35.8891 30.6554 35.8891Z" fill="#13FFD0"/>
<path d="M37.0331 55.4093V45.1333C37.5149 45.5308 39.3136 46.9202 42 46.9202C44.6863 46.9202 46.4862 45.5308 46.9669 45.1333V55.4093C46.3491 54.9775 44.5579 53.8452 42 53.8452C39.4421 53.8452 37.6509 54.9775 37.0331 55.4093Z" fill="white"/>
<path d="M53.3446 58.4314C57.8487 58.4314 61.5001 54.7779 61.5001 50.2712C61.5001 45.7645 57.8487 42.1111 53.3446 42.1111C48.8405 42.1111 45.1892 45.7645 45.1892 50.2712C45.1892 54.7779 48.8405 58.4314 53.3446 58.4314Z" fill="white"/>
<path d="M30.6554 58.4314C35.1595 58.4314 38.8108 54.7779 38.8108 50.2712C38.8108 45.7645 35.1595 42.1111 30.6554 42.1111C26.1513 42.1111 22.5 45.7645 22.5 50.2712C22.5 54.7779 26.1513 58.4314 30.6554 58.4314Z" fill="white"/>
</svg>
