<svg width="150" height="170" viewBox="0 0 150 170" fill="none" xmlns="http://www.w3.org/2000/svg">
<path d="M10.0745 161.502H21.058C21.3499 161.502 21.6001 161.606 21.8128 161.818C22.0255 162.03 22.1297 162.279 22.1297 162.57V168.537C22.1297 168.828 22.0255 169.077 21.8128 169.289C21.6001 169.501 21.3499 169.605 21.058 169.605H1.07167C0.779776 169.605 0.529576 169.501 0.316911 169.289C0.104245 169.077 0 168.828 0 168.537V143.006C0 142.715 0.104245 142.466 0.316911 142.254C0.529576 142.042 0.779776 141.938 1.07167 141.938H9.00283C9.29473 141.938 9.54492 142.042 9.75759 142.254C9.97025 142.466 10.0745 142.715 10.0745 143.006V161.502ZM27.7382 144.469C30.1693 142.52 33.3843 141.543 37.3749 141.543C41.3655 141.543 44.568 142.532 46.9699 144.506C49.4009 146.455 50.6185 149.21 50.6185 152.767V158.934C50.6185 162.545 49.4134 165.296 47.0116 167.195C44.6305 169.065 41.4197 170 37.3749 170C33.3301 170 30.1026 169.065 27.6965 167.195C25.3155 165.3 24.1271 162.545 24.1271 158.934V152.767C24.1271 149.185 25.328 146.418 27.7341 144.469H27.7382ZM35.2316 161.502C35.7612 162.03 36.4742 162.292 37.3749 162.292C38.2756 162.292 38.9887 162.03 39.5182 161.502C40.0478 160.974 40.3105 160.172 40.3105 159.092V152.451C40.3105 151.396 40.0478 150.606 39.5182 150.079C38.9887 149.526 38.2756 149.248 37.3749 149.248C36.4742 149.248 35.7612 149.526 35.2316 150.079C34.702 150.606 34.4393 151.396 34.4393 152.451V159.092C34.4393 160.172 34.702 160.974 35.2316 161.502ZM56.9985 144.469C59.4296 142.52 62.6446 141.543 66.6352 141.543C70.6258 141.543 73.8283 142.532 76.2301 144.506C78.6612 146.455 79.8788 149.21 79.8788 152.767V158.934C79.8788 162.545 78.6737 165.296 76.2718 167.195C73.8908 169.065 70.68 170 66.6352 170C62.5903 170 59.3628 169.065 56.9568 167.195C54.5758 165.3 53.3874 162.545 53.3874 158.934V152.767C53.3874 149.185 54.5925 146.418 56.9943 144.469H56.9985ZM64.4918 161.502C65.0214 162.03 65.7345 162.292 66.6352 162.292C67.5359 162.292 68.2489 162.03 68.7785 161.502C69.3081 160.974 69.5708 160.172 69.5708 159.092V152.451C69.5708 151.396 69.3081 150.606 68.7785 150.079C68.2489 149.526 67.5359 149.248 66.6352 149.248C65.7345 149.248 65.0214 149.526 64.4918 150.079C63.9622 150.606 63.6995 151.396 63.6995 152.451V159.092C63.6995 160.172 63.9622 160.974 64.4918 161.502ZM84.5116 141.938H96.3291C100.136 141.938 103.109 142.757 105.253 144.39C107.396 146.023 108.464 148.433 108.464 151.62C108.464 154.808 107.392 157.168 105.253 158.693C103.139 160.222 100.161 160.987 96.3291 160.987H93.7521V168.533C93.7521 168.824 93.6478 169.073 93.4352 169.285C93.2225 169.497 92.9723 169.601 92.6804 169.601H84.5116C84.2197 169.601 83.9695 169.497 83.7568 169.285C83.5442 169.073 83.4399 168.824 83.4399 168.533V143.002C83.4399 142.711 83.5442 142.462 83.7568 142.25C83.9695 142.038 84.2197 141.934 84.5116 141.934V141.938ZM93.5561 149.289V153.677H96.3333C96.8086 153.677 97.234 153.507 97.6009 153.162C97.972 152.792 98.1555 152.281 98.1555 151.62C98.1555 150.96 98.0096 150.407 97.7177 149.962C97.4258 149.514 96.9629 149.289 96.3291 149.289H93.5519H93.5561ZM120.585 169.605H112.496C112.204 169.605 111.954 169.501 111.741 169.289C111.528 169.077 111.424 168.828 111.424 168.537V143.006C111.424 142.715 111.528 142.466 111.741 142.254C111.954 142.042 112.204 141.938 112.496 141.938H120.585C120.877 141.938 121.128 142.042 121.34 142.254C121.553 142.466 121.657 142.715 121.657 143.006V168.537C121.657 168.828 121.553 169.077 121.34 169.289C121.128 169.501 120.877 169.605 120.585 169.605ZM125.689 141.938H148.928C149.22 141.938 149.47 142.042 149.683 142.254C149.896 142.466 150 142.715 150 143.006V149.368C150 149.659 149.896 149.908 149.683 150.12C149.47 150.332 149.22 150.436 148.928 150.436H142.344V168.537C142.344 168.828 142.24 169.077 142.027 169.289C141.814 169.501 141.564 169.605 141.272 169.605H133.341C133.049 169.605 132.799 169.501 132.586 169.289C132.374 169.077 132.27 168.828 132.27 168.537V150.436H125.685C125.393 150.436 125.143 150.332 124.931 150.12C124.718 149.908 124.614 149.659 124.614 149.368V143.006C124.614 142.715 124.718 142.466 124.931 142.254C125.143 142.042 125.393 141.938 125.685 141.938H125.689Z" fill="black"/>
<path d="M42.433 45.8514C55.1385 45.8514 65.4384 35.5872 65.4384 22.9257C65.4384 10.2642 55.1385 0 42.433 0C29.7275 0 19.4276 10.2642 19.4276 22.9257C19.4276 35.5872 29.7275 45.8514 42.433 45.8514Z" fill="#13FFD0"/>
<path d="M60.1426 100.762V71.8937C61.502 73.0115 66.5767 76.9135 74.1535 76.9135C81.7302 76.9135 86.8091 73.0115 88.1644 71.8937V100.762C86.4213 99.5483 81.3674 96.3694 74.1535 96.3694C66.9395 96.3694 61.8856 99.5483 60.1426 100.762Z" fill="black"/>
<path d="M106.116 109.255C118.821 109.255 129.121 98.9913 129.121 86.3298C129.121 73.6682 118.821 63.4041 106.116 63.4041C93.4103 63.4041 83.1105 73.6682 83.1105 86.3298C83.1105 98.9913 93.4103 109.255 106.116 109.255Z" fill="black"/>
<path d="M42.433 109.255C55.1385 109.255 65.4384 98.9913 65.4384 86.3298C65.4384 73.6682 55.1385 63.4041 42.433 63.4041C29.7275 63.4041 19.4276 73.6682 19.4276 86.3298C19.4276 98.9913 29.7275 109.255 42.433 109.255Z" fill="black"/>
</svg>
