<svg viewBox="0 0 192 36" fill="none" xmlns="http://www.w3.org/2000/svg">
<g clip-path="url(#clip0_266_212)">
<path d="M40.4733 3.70102C43.4881 1.23367 47.4697 0 52.418 0C57.3664 0 61.3312 1.25068 64.3126 3.7496C67.3275 6.21695 68.8337 9.69941 68.8337 14.1994V21.9997C68.8337 26.5677 67.3418 30.0502 64.3604 32.4495C61.4124 34.8173 57.4308 36 52.4157 36C47.4005 36 43.4046 34.8173 40.4232 32.4495C37.4752 30.0502 36 26.5653 36 21.9997V14.1994C36 9.66541 37.4919 6.16595 40.4733 3.6986V3.70102ZM49.7637 25.2539C50.4201 25.9217 51.3033 26.2545 52.418 26.2545C53.5328 26.2545 54.416 25.9217 55.0724 25.2539C55.7289 24.5861 56.0559 23.571 56.0559 22.2037V13.8036C56.0559 12.4703 55.7289 11.4698 55.0724 10.8044C54.416 10.105 53.5328 9.75526 52.418 9.75526C51.3033 9.75526 50.4201 10.105 49.7637 10.8044C49.1072 11.4722 48.7802 12.4703 48.7802 13.8036V22.2037C48.7802 23.571 49.1072 24.5861 49.7637 25.2539ZM76.7372 3.70102C79.752 1.23367 83.7336 0 88.6819 0C93.6302 0 97.5951 1.25068 100.576 3.7496C103.591 6.21695 105.098 9.69941 105.098 14.1994V21.9997C105.098 26.5677 103.606 30.0502 100.624 32.4495C97.6763 34.8173 93.6947 36 88.6795 36C83.6643 36 79.6684 34.8173 76.687 32.4495C73.739 30.0502 72.2639 26.5653 72.2639 21.9997V14.1994C72.2639 9.66541 73.7558 6.16595 76.7372 3.6986V3.70102ZM86.0275 25.2539C86.6839 25.9217 87.5672 26.2545 88.6819 26.2545C89.7966 26.2545 90.6798 25.9217 91.3363 25.2539C91.9927 24.5861 92.3197 23.571 92.3197 22.2037V13.8036C92.3197 12.4703 91.9927 11.4698 91.3363 10.8044C90.6798 10.105 89.7966 9.75526 88.6819 9.75526C87.5672 9.75526 86.6839 10.105 86.0275 10.8044C85.3711 11.4722 85.044 12.4703 85.044 13.8036V22.2037C85.044 23.571 85.3711 24.5861 86.0275 25.2539ZM110.838 0.500269H125.485C130.204 0.500269 133.89 1.53481 136.544 3.60146C139.199 5.66811 140.526 8.71829 140.526 12.752C140.526 16.7858 139.199 19.7704 136.544 21.7035C133.923 23.6365 130.235 24.6031 125.485 24.6031H122.291V34.1543C122.291 34.521 122.16 34.8368 121.897 35.1039C121.635 35.371 121.325 35.5046 120.964 35.5046H110.838C110.478 35.5046 110.168 35.371 109.905 35.1039C109.642 34.8368 109.511 34.521 109.511 34.1543V1.85051C109.511 1.48381 109.642 1.16811 109.905 0.900971C110.168 0.633837 110.478 0.500269 110.838 0.500269ZM122.046 9.8014V15.3529H125.485C126.075 15.3529 126.6 15.1368 127.058 14.7021C127.517 14.2358 127.746 13.585 127.746 12.752C127.746 11.919 127.567 11.2196 127.206 10.6514C126.846 10.0831 126.273 9.8014 125.485 9.8014H122.046ZM155.545 35.5046H145.52C145.159 35.5046 144.849 35.371 144.586 35.1039C144.324 34.8368 144.192 34.521 144.192 34.1543V1.85051C144.192 1.48381 144.324 1.16811 144.586 0.900971C144.849 0.633837 145.159 0.500269 145.52 0.500269H155.545C155.906 0.500269 156.216 0.633837 156.479 0.900971C156.741 1.16811 156.872 1.48381 156.872 1.85051V34.1543C156.872 34.521 156.741 34.8368 156.479 35.1039C156.216 35.371 155.906 35.5046 155.545 35.5046ZM161.871 0.500269H190.673C191.033 0.500269 191.344 0.633837 191.606 0.900971C191.869 1.16811 192 1.48381 192 1.85051V9.90097C192 10.2677 191.869 10.5834 191.606 10.8505C191.344 11.1176 191.033 11.2512 190.673 11.2512H182.514V34.1519C182.514 34.5186 182.383 34.8343 182.12 35.1015C181.857 35.3686 181.547 35.5022 181.187 35.5022H171.357C170.996 35.5022 170.686 35.3686 170.424 35.1015C170.161 34.8343 170.03 34.5186 170.03 34.1519V11.2512H161.871C161.51 11.2512 161.2 11.1176 160.937 10.8505C160.675 10.5834 160.544 10.2677 160.544 9.90097V1.85051C160.544 1.48381 160.675 1.16811 160.937 0.900971C161.2 0.633837 161.51 0.500269 161.871 0.500269Z" fill="black"/>
<path d="M7 15C10.866 15 14 11.866 14 8C14 4.13401 10.866 1 7 1C3.13401 1 0 4.13401 0 8C0 11.866 3.13401 15 7 15Z" fill="#13FFD0"/>
<path d="M12 32V23C12.4369 23.3486 14.0661 24.5641 16.5 24.5641C18.9339 24.5641 20.5631 23.3486 21 23V32C20.4397 31.6227 18.8179 30.6317 16.5 30.6317C14.1821 30.6317 12.5603 31.6227 12 32Z" fill="black"/>
<path d="M26.5 35C30.6421 35 34 31.866 34 28C34 24.134 30.6421 21 26.5 21C22.3579 21 19 24.134 19 28C19 31.866 22.3579 35 26.5 35Z" fill="black"/>
<path d="M7 35C10.866 35 14 31.866 14 28C14 24.134 10.866 21 7 21C3.13401 21 0 24.134 0 28C0 31.866 3.13401 35 7 35Z" fill="black"/>
</g>
<defs>
<clipPath id="clip0_266_212">
<rect width="192" height="36" fill="white"/>
</clipPath>
</defs>
</svg>
