<svg width="24" height="24" viewBox="0 0 24 24" fill="none" xmlns="http://www.w3.org/2000/svg">
<path d="M15.0001 10L11.0001 14L9.00007 12M12.0001 21C10.4241 21.0025 8.87533 20.5893 7.51007 19.802C7.42948 19.7493 7.34328 19.7057 7.25307 19.672C7.19875 19.657 7.14229 19.6512 7.08607 19.655C6.99732 19.6667 6.91055 19.6902 6.82807 19.725L4.51807 20.494H4.51607C4.02907 20.657 3.78507 20.739 3.62307 20.681C3.55297 20.6561 3.48931 20.6159 3.43672 20.5634C3.38413 20.5108 3.34394 20.4471 3.31907 20.377C3.26207 20.215 3.34307 19.972 3.50507 19.485V19.482L4.27507 17.176L4.27707 17.171C4.31907 17.042 4.34107 16.977 4.34507 16.915C4.34896 16.8585 4.34322 16.8016 4.32807 16.747C4.29579 16.6583 4.25316 16.5737 4.20107 16.495L4.19807 16.49C3.20995 14.7735 2.81567 12.7789 3.07635 10.8155C3.33702 8.85211 4.23808 7.02953 5.63987 5.63029C7.04165 4.23104 8.86586 3.33328 10.8297 3.07617C12.7936 2.81905 14.7874 3.21695 16.5022 4.20817C18.2169 5.19939 19.5568 6.72858 20.3142 8.5587C21.0715 10.3888 21.204 12.4177 20.691 14.3307C20.1781 16.2438 19.0485 17.9342 17.4772 19.14C15.9059 20.3458 13.9807 20.9996 12.0001 21Z" stroke="black" stroke-width="2" stroke-linecap="round" stroke-linejoin="round"/>
</svg>
