<svg width="47" height="38" viewBox="0 0 47 38" fill="none" xmlns="http://www.w3.org/2000/svg">
<g clip-path="url(#clip0_1774_6321)">
<path d="M6.60703 28.6507C10.256 28.6507 13.2141 25.984 13.2141 22.6944C13.2141 19.4048 10.256 16.738 6.60703 16.738C2.95807 16.738 0 19.4048 0 22.6944C0 25.984 2.95807 28.6507 6.60703 28.6507Z" fill="url(#paint0_linear_1774_6321)"/>
<path d="M40.3932 28.6507C44.0421 28.6507 47.0002 25.984 47.0002 22.6944C47.0002 19.4048 44.0421 16.738 40.3932 16.738C36.7442 16.738 33.7861 19.4048 33.7861 22.6944C33.7861 25.984 36.7442 28.6507 40.3932 28.6507Z" fill="url(#paint1_linear_1774_6321)"/>
<path d="M23.7254 38C34.6723 38 43.5465 31.1812 43.5465 22.7698C43.5465 14.3584 34.6723 7.53967 23.7254 7.53967C12.7785 7.53967 3.9043 14.3584 3.9043 22.7698C3.9043 31.1812 12.7785 38 23.7254 38Z" fill="url(#paint2_linear_1774_6321)"/>
<path d="M8.06543 8.13371L11.8195 5.95715C11.7762 6.21896 11.6498 7.17588 12.2186 8.16533C12.7875 9.15479 13.6763 9.52386 13.9234 9.61655L10.1693 11.7931C10.1962 11.474 10.2302 10.5743 9.68855 9.63225C9.14694 8.69017 8.3541 8.26985 8.06543 8.13371Z" fill="black"/>
<path d="M35.3697 5.9939L39.1645 8.09798C38.9189 8.19597 38.0376 8.58147 37.4877 9.58167C36.9378 10.5819 37.0821 11.5367 37.1306 11.7971L33.3359 9.69302C33.6218 9.55136 34.4066 9.1159 34.9302 8.16359C35.4538 7.21128 35.4027 6.31243 35.3697 5.9939Z" fill="black"/>
<path d="M5.63176 6.46142C6.5857 8.12064 8.69379 8.69182 10.3403 7.73719C11.9868 6.78255 12.5483 4.66359 11.5944 3.00437C10.6404 1.34513 8.53235 0.773945 6.88584 1.72859C5.2393 2.68322 4.67784 4.80217 5.63176 6.46142Z" fill="url(#paint3_linear_1774_6321)"/>
<path d="M35.5378 3.0369C34.6155 4.71413 35.2172 6.82193 36.8818 7.74478C38.5461 8.66764 40.643 8.0561 41.5651 6.37885C42.4872 4.70162 41.8855 2.59382 40.2212 1.67097C38.5568 0.74811 36.46 1.35966 35.5378 3.0369Z" fill="url(#paint4_linear_1774_6321)"/>
<path d="M23.7249 36.0396C31.6863 36.0396 38.1402 31.0437 38.1402 24.8809C38.1402 18.7181 31.6863 13.7222 23.7249 13.7222C15.7635 13.7222 9.30957 18.7181 9.30957 24.8809C9.30957 31.0437 15.7635 36.0396 23.7249 36.0396Z" fill="url(#paint5_linear_1774_6321)"/>
<path d="M18.6195 28.1984C19.5318 28.1984 20.2713 27.152 20.2713 25.8611C20.2713 24.5702 19.5318 23.5238 18.6195 23.5238C17.7073 23.5238 16.9678 24.5702 16.9678 25.8611C16.9678 27.152 17.7073 28.1984 18.6195 28.1984Z" fill="url(#paint6_linear_1774_6321)"/>
<path d="M28.2299 28.1984C29.1421 28.1984 29.8816 27.152 29.8816 25.8611C29.8816 24.5702 29.1421 23.5238 28.2299 23.5238C27.3176 23.5238 26.5781 24.5702 26.5781 25.8611C26.5781 27.152 27.3176 28.1984 28.2299 28.1984Z" fill="url(#paint7_linear_1774_6321)"/>
<path d="M19.3706 27.746C19.5366 27.746 19.671 27.611 19.671 27.4444C19.671 27.2778 19.5366 27.1428 19.3706 27.1428C19.2047 27.1428 19.0703 27.2778 19.0703 27.4444C19.0703 27.611 19.2047 27.746 19.3706 27.746Z" fill="#13FFD0"/>
<path d="M28.8306 27.8969C28.9965 27.8969 29.1309 27.7619 29.1309 27.5953C29.1309 27.4287 28.9965 27.2937 28.8306 27.2937C28.6647 27.2937 28.5303 27.4287 28.5303 27.5953C28.5303 27.7619 28.6647 27.8969 28.8306 27.8969Z" fill="#13FFD0"/>
<path d="M18.6198 21.1111C19.7808 21.1111 20.7221 20.7398 20.7221 20.2818C20.7221 19.8237 19.7808 19.4524 18.6198 19.4524C17.4588 19.4524 16.5176 19.8237 16.5176 20.2818C16.5176 20.7398 17.4588 21.1111 18.6198 21.1111Z" fill="#B5FFE6"/>
<path d="M28.8308 21.1111C29.9918 21.1111 30.933 20.7398 30.933 20.2818C30.933 19.8237 29.9918 19.4524 28.8308 19.4524C27.6697 19.4524 26.7285 19.8237 26.7285 20.2818C26.7285 20.7398 27.6697 21.1111 28.8308 21.1111Z" fill="#B5FFE6"/>
<path d="M33.2703 27.7361L31.9201 27.6771C30.8845 27.6319 30.0084 28.4383 29.9634 29.4784C29.9183 30.5184 30.7214 31.3982 31.757 31.4434L33.1072 31.5024C34.1428 31.5476 35.0189 30.7412 35.064 29.7011C35.109 28.6611 34.306 27.7813 33.2703 27.7361Z" fill="black"/>
<path d="M44.0462 25.3334C42.1772 30.9067 34.88 30.2361 34.0322 29.5903" stroke="black" stroke-linecap="round"/>
</g>
<defs>
<linearGradient id="paint0_linear_1774_6321" x1="6.60703" y1="16.738" x2="6.60703" y2="28.6507" gradientUnits="userSpaceOnUse">
<stop stop-color="#1C1C1E"/>
<stop offset="1" stop-color="#636366"/>
</linearGradient>
<linearGradient id="paint1_linear_1774_6321" x1="40.3932" y1="16.738" x2="40.3932" y2="28.6507" gradientUnits="userSpaceOnUse">
<stop stop-color="#1C1C1E"/>
<stop offset="1" stop-color="#636366"/>
</linearGradient>
<linearGradient id="paint2_linear_1774_6321" x1="23.7254" y1="7.53967" x2="23.7254" y2="38" gradientUnits="userSpaceOnUse">
<stop stop-color="#8CFFDD"/>
<stop offset="1" stop-color="#04D9B5"/>
</linearGradient>
<linearGradient id="paint3_linear_1774_6321" x1="11.5944" y1="3.00437" x2="5.61923" y2="6.43962" gradientUnits="userSpaceOnUse">
<stop/>
<stop offset="1" stop-color="#C7C7CC"/>
</linearGradient>
<linearGradient id="paint4_linear_1774_6321" x1="41.5651" y1="6.37885" x2="35.526" y2="3.05843" gradientUnits="userSpaceOnUse">
<stop/>
<stop offset="1" stop-color="#C7C7CC"/>
</linearGradient>
<linearGradient id="paint5_linear_1774_6321" x1="23.7249" y1="13.7222" x2="23.7249" y2="36.0396" gradientUnits="userSpaceOnUse">
<stop stop-color="#1C1C1E"/>
<stop offset="1" stop-color="#636366"/>
</linearGradient>
<linearGradient id="paint6_linear_1774_6321" x1="18.6195" y1="23.5238" x2="18.6195" y2="28.1984" gradientUnits="userSpaceOnUse">
<stop stop-color="#E6FFF6"/>
<stop offset="0.5" stop-color="#13FFD0"/>
<stop offset="1" stop-color="#00B39B"/>
</linearGradient>
<linearGradient id="paint7_linear_1774_6321" x1="28.2299" y1="23.5238" x2="28.2299" y2="28.1984" gradientUnits="userSpaceOnUse">
<stop stop-color="#E6FFF6"/>
<stop offset="0.5" stop-color="#13FFD0"/>
<stop offset="1" stop-color="#00B39B"/>
</linearGradient>
<clipPath id="clip0_1774_6321">
<rect width="47" height="38" fill="white"/>
</clipPath>
</defs>
</svg>
