<svg width="24" height="24" viewBox="10 10 20 20" fill="none" xmlns="http://www.w3.org/2000/svg">

<path d="M11 26V14.2C11 13.08 11 12.52 11.218 12.092C11.41 11.715 11.715 11.41 12.092 11.218C12.52 11 13.08 11 14.2 11H25.8C26.92 11 27.48 11 27.908 11.218C28.2843 11.4097 28.5903 11.7157 28.782 12.092C29 12.519 29 13.079 29 14.197V25.803C29 26.288 29 26.668 28.982 26.977M11 26C11 26.988 11.013 27.506 11.218 27.907C11.41 28.284 11.715 28.59 12.092 28.782C12.519 29 13.079 29 14.197 29H25.804C26.922 29 27.481 29 27.908 28.782C28.284 28.59 28.59 28.284 28.782 27.907C28.905 27.665 28.959 27.381 28.982 26.977M11 26L15.768 20.438L15.769 20.436C16.192 19.943 16.404 19.696 16.655 19.606C16.8756 19.5279 17.1166 19.5297 17.336 19.611C17.586 19.704 17.796 19.954 18.212 20.454L20.883 23.659C21.269 24.123 21.463 24.355 21.699 24.449C21.9068 24.5308 22.136 24.5406 22.35 24.477C22.594 24.405 22.81 24.19 23.239 23.761L23.736 23.264C24.173 22.826 24.392 22.608 24.64 22.536C24.8575 22.4734 25.0899 22.4864 25.299 22.573C25.537 22.672 25.73 22.913 26.117 23.395L28.982 26.977M28.982 26.977L29 27M23 17C22.7348 17 22.4804 16.8946 22.2929 16.7071C22.1054 16.5196 22 16.2652 22 16C22 15.7348 22.1054 15.4804 22.2929 15.2929C22.4804 15.1054 22.7348 15 23 15C23.2652 15 23.5196 15.1054 23.7071 15.2929C23.8946 15.4804 24 15.7348 24 16C24 16.2652 23.8946 16.5196 23.7071 16.7071C23.5196 16.8946 23.2652 17 23 17Z" stroke="#8E8E93" stroke-width="2" stroke-linecap="round" stroke-linejoin="round"/>
</svg>
